<?xml version="1.0" encoding="UTF-8" standalone="no"?>
<svg
   xmlns:dc="http://purl.org/dc/elements/1.1/"
   xmlns:cc="http://creativecommons.org/ns#"
   xmlns:rdf="http://www.w3.org/1999/02/22-rdf-syntax-ns#"
   xmlns:svg="http://www.w3.org/2000/svg"
   xmlns="http://www.w3.org/2000/svg"
   version="1.1"
   id="svg4285"
   viewBox="0 0 82.315802 20"
   height="5.6444445mm"
   width="23.231348mm">
  <defs
     id="defs4287" />
  <metadata
     id="metadata4290">
    <rdf:RDF>
      <cc:Work
         rdf:about="">
        <dc:format>image/svg+xml</dc:format>
        <dc:type
           rdf:resource="http://purl.org/dc/dcmitype/StillImage" />
        <dc:title></dc:title>
      </cc:Work>
    </rdf:RDF>
  </metadata>
  <g
     transform="translate(-612.93107,-193.7582)"
     id="layer1">
    <path
       class="fil5"
       d="m 613.07142,201.26697 c -0.0702,-0.14035 -0.14035,-0.2807 -0.14035,-0.5614 0,-0.42106 0.14035,-0.98246 0.35088,-1.68421 0.14035,-0.49123 0.2807,-0.91228 0.42105,-1.19299 0.28071,-0.49123 0.77193,-0.98246 1.54386,-1.47368 0.70175,-0.42106 1.12281,-0.63158 1.26316,-0.63158 0.0702,0 0.14035,0.0702 0.21053,0.21052 0.0702,0.14036 0.14035,0.21053 0.14035,0.21053 1.1228,-0.49123 2.45613,-0.98245 3.78947,-1.40351 1.54386,-0.49122 3.01755,-0.70175 4.42105,-0.70175 0.2807,0 0.56141,0.2807 0.98246,0.84211 0.35088,0.5614 0.5614,0.98245 0.5614,1.26315 0,0.21053 -0.2807,0.77193 -0.77193,1.75439 -0.49123,0.98245 -0.77193,1.47368 -0.77193,1.61404 0.77193,-0.35088 1.47369,-0.70176 2.24562,-1.05264 1.40351,-0.77192 2.87719,-1.47368 4.35088,-2.24561 1.61403,-0.8421 2.45613,-1.19299 2.66666,-1.05263 0.0702,0.0702 0.14036,0.14035 0.14036,0.2807 0,0.2807 -0.21053,0.70175 -0.63159,1.26316 -0.42105,0.49123 -0.91228,0.91228 -1.33333,1.1228 -1.40351,0.70176 -2.31579,1.12281 -2.73684,1.33334 -1.68422,0.84211 -3.22807,1.54386 -4.49123,2.24561 -1.61403,0.84211 -2.52632,1.33334 -2.66667,1.54386 -0.2807,0.35088 -0.49123,0.63158 -0.5614,0.77193 -0.21053,0.2807 -0.2807,0.5614 -0.35088,0.77193 0,0.14036 0.70176,0.63158 2.10527,1.47369 1.89473,1.1228 3.29824,2.03508 4.28069,2.73684 1.68422,1.19298 2.73685,2.24561 3.22807,3.08772 0.0702,0.0702 0.0702,0.2807 0.0702,0.49122 0,0.35088 -0.0702,0.70176 -0.21052,1.05264 -0.14035,0.35087 -0.2807,0.42105 -0.49122,0.42105 -0.14036,-0.0702 -1.19299,-0.63158 -2.94738,-1.75438 -1.6842,-1.05264 -3.29824,-2.0351 -4.91228,-3.08773 -1.75439,-1.1228 -2.73684,-1.68421 -2.80701,-1.68421 -0.28071,0 -0.63158,0.35088 -1.19299,1.12281 -0.49123,0.70175 -0.77193,1.19298 -0.8421,1.54386 -0.0702,0.35088 -0.49123,0.84211 -1.26316,1.68421 -0.84211,0.84211 -1.47369,1.26316 -1.89474,1.26316 -0.14035,0 -0.21053,0 -0.2807,-0.0702 -0.0702,-0.0702 -0.0702,-0.14035 -0.0702,-0.2807 0,-0.42105 0.42105,-1.19299 1.19298,-2.31579 0.91228,-1.26316 1.82456,-2.5965 2.73684,-3.92983 0,-0.0702 0,-0.14034 0,-0.2807 0,-0.14035 0,-0.35087 -0.0702,-0.5614 0,-0.21053 -0.0702,-0.35088 -0.0702,-0.35088 0,-0.21053 0,-0.35087 0,-0.49122 0,-0.14036 0.0702,-0.28071 0.21052,-0.63159 0.0702,-0.2807 0.49123,-0.63157 1.12282,-1.1228 0.8421,-0.49123 1.6842,-0.98246 2.52631,-1.54386 0.21053,-0.21053 0.70176,-0.91228 1.40351,-2.10526 0.70176,-1.19299 1.05263,-1.82457 0.98245,-1.96492 -0.0702,-0.0702 -0.14035,-0.14035 -0.35087,-0.14035 -0.42105,0 -1.40351,0.2807 -2.8772,0.91228 -0.70175,0.2807 -1.33333,0.56141 -2.03508,0.84211 -0.63159,0.28071 -1.47369,0.70176 -2.52632,1.19299 -1.89474,0.98245 -3.01755,1.47368 -3.36843,1.47368 -0.14034,0 -0.21052,-0.0702 -0.2807,-0.14035 z m 38.10527,5.96491 -0.91228,0 -0.98245,-1.61403 -0.35089,0.2807 0,1.40351 -0.8421,0 0,-3.85965 0.8421,0 0,1.75438 0.35089,-0.42105 1.05262,-1.33333 0.91228,0 -1.33333,1.68421 1.33333,2.17544 z m 0.49123,0 0,-3.85965 0.84211,0 0,3.85965 -0.84211,0 z m 3.43859,0 -0.91228,-3.01754 0,0 c 0,0.63158 0.0702,1.05263 0.0702,1.26316 l 0,1.75438 -0.70176,0 0,-3.85965 1.12281,0 0.91229,2.94737 0,0 0.98245,-2.94737 1.12281,0 0,3.85965 -0.77193,0 0,-1.82456 c 0,-0.0702 0,-0.21053 0,-0.2807 0,-0.14035 0,-0.42105 0.0702,-0.91228 l 0,0 -0.98246,3.01754 -0.77193,0 z m -5.33333,1.54387 c -0.2807,0 -0.5614,0.14034 -0.70176,0.35087 -0.14035,0.21053 -0.28069,0.56141 -0.28069,0.98246 0,0.8421 0.35087,1.26315 0.98245,1.26315 0.2807,0 0.63158,-0.0702 0.98246,-0.21052 l 0,0.70175 c -0.28071,0.14036 -0.70176,0.21053 -1.05263,0.21053 -0.56141,0 -0.98246,-0.14035 -1.26316,-0.49123 -0.28071,-0.35088 -0.42106,-0.8421 -0.42106,-1.47368 0,-0.42105 0.0702,-0.77193 0.21053,-1.05264 0.14036,-0.28069 0.35088,-0.5614 0.63158,-0.70175 0.2807,-0.14035 0.5614,-0.21053 0.98246,-0.21053 0.35088,0 0.77193,0.0702 1.1228,0.28071 l -0.2807,0.63157 c -0.14035,-0.0702 -0.2807,-0.14035 -0.42105,-0.21052 -0.14035,-0.0702 -0.2807,-0.0702 -0.42105,-0.0702 z m 4.98246,3.22807 -0.8421,0 0,-1.68422 -1.54387,0 0,1.68422 -0.8421,0 0,-3.85966 0.8421,0 0,1.47369 1.54387,0 0,-1.47369 0.8421,0 0,3.85966 z m 1.75438,-2.10527 0.28071,0 c 0.2807,0 0.42105,-0.0702 0.5614,-0.14035 0.14035,-0.0702 0.21053,-0.21053 0.21053,-0.42105 0,-0.21053 -0.0702,-0.28071 -0.21053,-0.42106 -0.14035,-0.0702 -0.35088,-0.14034 -0.5614,-0.14034 l -0.28071,0 0,1.05262 z m 0,0.63158 0,1.47369 -0.8421,0 0,-3.85966 1.12281,0 c 0.49122,0 0.91228,0.0702 1.19298,0.28071 0.2807,0.21052 0.35087,0.49122 0.35087,0.8421 0,0.21053 -0.0702,0.42106 -0.21052,0.63158 -0.14035,0.21053 -0.28071,0.28071 -0.5614,0.42105 0.5614,0.84211 0.98245,1.40351 1.1228,1.68422 l -0.91228,0 -0.91228,-1.47369 -0.42105,0 z m 2.73684,1.47369 0,-3.85966 0.84211,0 0,3.85966 -0.84211,0 z m 4.07018,-1.05264 c 0,0.35088 -0.14035,0.63158 -0.35088,0.84211 -0.28069,0.21053 -0.63157,0.2807 -1.05263,0.2807 -0.42105,0 -0.77193,-0.0702 -1.1228,-0.21053 l 0,-0.77192 c 0.2807,0.14034 0.49123,0.21052 0.63158,0.21052 0.21052,0.0702 0.35087,0.0702 0.49122,0.0702 0.21053,0 0.35088,0 0.42106,-0.0702 0.0702,-0.0702 0.14034,-0.14035 0.14034,-0.2807 0,-0.0702 0,-0.14036 -0.0702,-0.21053 -0.0702,-0.0702 -0.0702,-0.14035 -0.21053,-0.14035 -0.0702,-0.0702 -0.2807,-0.14035 -0.49123,-0.2807 -0.21052,-0.14035 -0.42105,-0.21052 -0.5614,-0.35088 -0.14035,-0.0702 -0.21052,-0.21053 -0.2807,-0.35087 -0.0702,-0.14036 -0.14035,-0.28071 -0.14035,-0.49123 0,-0.35088 0.14035,-0.63158 0.35087,-0.77193 0.21053,-0.21053 0.56141,-0.28071 0.98246,-0.28071 0.21053,0 0.42105,0 0.56141,0.0702 0.21052,0.0702 0.35087,0.14036 0.5614,0.21053 l -0.28071,0.63158 c -0.21052,-0.0702 -0.35087,-0.14036 -0.49122,-0.21053 -0.14035,0 -0.2807,-0.0702 -0.42106,-0.0702 -0.14034,0 -0.2807,0.0702 -0.35087,0.14034 -0.0702,0.0702 -0.14035,0.14035 -0.14035,0.28071 0,0.0702 0,0.14035 0.0702,0.21052 0,0.0702 0.0702,0.0702 0.14036,0.14035 0.0702,0.0702 0.21052,0.14036 0.49123,0.2807 0.35087,0.14035 0.63157,0.35089 0.77192,0.49123 0.14036,0.14035 0.21053,0.35088 0.21053,0.63158 z m 2.17544,1.05264 -0.8421,0 0,-3.1579 -1.05263,0 0,-0.70176 2.87719,0 0,0.70176 -1.05263,0 0,3.1579 z m 3.85965,0 -2.24562,0 0,-3.85966 2.24562,0 0,0.70176 -1.40351,0 0,0.84211 1.33334,0 0,0.70175 -1.33334,0 0,0.98245 1.40351,0 0,0.70176 z m 4.21052,0 -1.05262,0 -1.68422,-2.8772 0,0 c 0,0.49123 0.0702,0.91228 0.0702,1.12281 l 0,1.82456 -0.70175,0 0,-3.85965 1.05263,0 1.68421,2.8772 0,0 c 0,-0.49123 -0.0702,-0.84211 -0.0702,-1.05264 l 0,-1.82456 0.70175,0 0,3.85965 z m 3.22808,-1.05264 c 0,0.35088 -0.14035,0.63158 -0.35088,0.84211 -0.2807,0.21053 -0.63158,0.2807 -1.05263,0.2807 -0.42106,0 -0.77193,-0.0702 -1.12281,-0.21053 l 0,-0.77192 c 0.2807,0.14034 0.49123,0.21052 0.63158,0.21052 0.21053,0.0702 0.35088,0.0702 0.49123,0.0702 0.21053,0 0.35088,0 0.42105,-0.0702 0.0702,-0.0702 0.14035,-0.14035 0.14035,-0.2807 0,-0.0702 0,-0.14036 -0.0702,-0.21053 -0.0702,-0.0702 -0.0702,-0.14035 -0.21052,-0.14035 -0.0702,-0.0702 -0.2807,-0.14035 -0.49123,-0.2807 -0.21053,-0.14035 -0.42105,-0.21052 -0.5614,-0.35088 -0.14035,-0.0702 -0.21053,-0.21053 -0.2807,-0.35087 -0.0702,-0.14036 -0.14036,-0.28071 -0.14036,-0.49123 0,-0.35088 0.14036,-0.63158 0.35088,-0.77193 0.21053,-0.21053 0.5614,-0.28071 0.98246,-0.28071 0.21053,0 0.42105,0 0.5614,0.0702 0.21053,0.0702 0.35088,0.14036 0.56141,0.21053 l -0.28071,0.63158 c -0.21052,-0.0702 -0.35088,-0.14036 -0.49123,-0.21053 -0.14034,0 -0.2807,-0.0702 -0.42105,-0.0702 -0.14035,0 -0.2807,0.0702 -0.35088,0.14034 -0.0702,0.0702 -0.14035,0.14035 -0.14035,0.28071 0,0.0702 0,0.14035 0.0702,0.21052 0,0.0702 0.0702,0.0702 0.14035,0.14035 0.0702,0.0702 0.21053,0.14036 0.49123,0.2807 0.35088,0.14035 0.63158,0.35089 0.77193,0.49123 0.14035,0.14035 0.21053,0.35088 0.21053,0.63158 z m 2.87719,1.05264 -2.24561,0 0,-3.85966 2.24561,0 0,0.70176 -1.40351,0 0,0.84211 1.33333,0 0,0.70175 -1.33333,0 0,0.98245 1.40351,0 0,0.70176 z m 4.21053,0 -1.05264,0 -1.6842,-2.8772 0,0 c 0,0.49123 0.0702,0.91228 0.0702,1.12281 l 0,1.82456 -0.70176,0 0,-3.85965 1.05263,0 1.68421,2.8772 0,0 c 0,-0.49123 -0.0702,-0.84211 -0.0702,-1.05264 l 0,-1.82456 0.70175,0 0,3.85965 z m 4.70175,0 -0.28069,-0.91228 -1.40351,0 -0.28071,0.91228 -0.91228,0 1.33333,-3.85966 0.98246,0 1.33333,3.85966 -0.91228,0 z m -0.49123,-1.61404 c -0.28069,-0.84211 -0.42105,-1.33334 -0.42105,-1.40351 0,-0.14035 -0.0702,-0.21052 -0.0702,-0.2807 -0.0702,0.21052 -0.21052,0.77193 -0.49123,1.68421 l 0.98246,0 z m 1.68422,1.19298 c 0,-0.14035 0.0702,-0.2807 0.14035,-0.35088 0.0702,-0.0702 0.21053,-0.14034 0.35087,-0.14034 0.14035,0 0.28071,0.0702 0.35089,0.14034 0.0702,0.0702 0.14034,0.21053 0.14034,0.35088 0,0.14035 -0.0702,0.2807 -0.14034,0.35088 -0.0702,0.0702 -0.21054,0.14035 -0.35089,0.14035 -0.14034,0 -0.2807,-0.0702 -0.35087,-0.14035 -0.0702,-0.0702 -0.14035,-0.21053 -0.14035,-0.35088 z m 4,-0.70176 c 0,0.35088 -0.14036,0.63159 -0.35088,0.84211 -0.2807,0.21053 -0.63158,0.28071 -1.05263,0.28071 -0.42105,0 -0.77193,-0.0702 -1.12281,-0.21053 l 0,-0.77193 c 0.28071,0.14035 0.49123,0.21052 0.63158,0.21052 0.21053,0.0702 0.35087,0.0702 0.49123,0.0702 0.21052,0 0.35087,0 0.42105,-0.0702 0.0702,-0.0702 0.14035,-0.14034 0.14035,-0.2807 0,-0.0702 0,-0.14035 -0.0702,-0.21052 -0.0702,-0.0702 -0.0702,-0.14035 -0.21053,-0.14035 -0.0702,-0.0702 -0.2807,-0.14036 -0.49122,-0.28071 -0.21053,-0.14034 -0.42106,-0.21052 -0.56141,-0.35088 -0.14035,-0.0702 -0.21053,-0.21052 -0.28071,-0.35087 -0.0702,-0.14035 -0.14034,-0.2807 -0.14034,-0.49123 0,-0.35087 0.14034,-0.63158 0.35088,-0.77193 0.21052,-0.21053 0.5614,-0.2807 0.98245,-0.2807 0.21052,0 0.42105,0 0.56141,0.0702 0.21052,0.0702 0.35087,0.14035 0.56139,0.21053 l -0.28069,0.63157 c -0.21053,-0.0702 -0.35088,-0.14035 -0.49123,-0.21052 -0.14036,0 -0.2807,-0.0702 -0.42105,-0.0702 -0.14036,0 -0.2807,0.0702 -0.35088,0.14035 -0.0702,0.0702 -0.14035,0.14035 -0.14035,0.2807 0,0.0702 0,0.14035 0.0702,0.21053 0,0.0702 0.0702,0.0702 0.14035,0.14035 0.0702,0.0702 0.21053,0.14035 0.49123,0.2807 0.35088,0.14035 0.63158,0.35088 0.77193,0.49123 0.14035,0.14035 0.21052,0.35088 0.21052,0.63157 z m 0.49123,0.70176 c 0,-0.14035 0.0702,-0.2807 0.14035,-0.35088 0.0702,-0.0702 0.21052,-0.14034 0.35088,-0.14034 0.14034,0 0.28069,0.0702 0.35087,0.14034 0.0702,0.0702 0.14035,0.21053 0.14035,0.35088 0,0.14035 -0.0702,0.2807 -0.14035,0.35088 -0.0702,0.0702 -0.21053,0.14035 -0.35087,0.14035 -0.14036,0 -0.28071,-0.0702 -0.35088,-0.14035 -0.0702,-0.0702 -0.14035,-0.21053 -0.14035,-0.35088 z m -50.5965,-10.10526 c -1.19299,1.1228 -2.03509,1.96491 -2.5965,2.38596 -1.05262,0.84211 -1.82456,1.26316 -2.45613,1.26316 -0.28071,0 -0.56141,-0.0702 -0.70176,-0.2807 -0.0702,-0.0702 -0.14035,-0.21052 -0.21052,-0.2807 -0.0702,-0.14036 -0.0702,-0.21053 -0.0702,-0.35088 0,-0.63158 0.5614,-1.47368 1.61403,-2.45614 1.05263,-0.98246 1.75439,-1.40351 2.03509,-1.26316 0.2807,0.14035 0.91228,-0.49122 1.89474,-1.82456 0.98245,-1.33334 1.47368,-2.31579 1.47368,-2.94737 0,-0.14035 -0.0702,-0.2807 -0.14035,-0.35087 -0.0702,-0.0702 -0.21053,-0.14036 -0.35088,-0.14036 -0.70175,0 -1.75438,0.63158 -3.22807,1.82456 -1.61404,1.33334 -3.15789,3.01755 -4.5614,4.91228 -0.5614,0.77194 -1.05263,1.61404 -1.47368,2.52632 -0.56141,1.19298 -0.84211,2.24561 -0.84211,3.08772 0,0.49123 0.0702,0.91228 0.21052,1.26316 0.14036,0.35088 0.42106,0.70175 0.77193,0.98245 0.35088,0.28071 0.84211,0.42106 1.40351,0.42106 0.91228,0 2.03509,-0.42106 3.4386,-1.19299 0.8421,-0.49122 1.89474,-1.19297 3.15789,-2.17543 0.98246,-0.77193 1.54387,-1.12281 1.61404,-1.12281 -0.42105,0.5614 -0.8421,1.19298 -1.26316,1.75438 -1.1228,1.26317 -2.31579,2.31579 -3.64912,3.1579 -1.68421,1.12281 -3.22807,1.68421 -4.56141,1.68421 -0.49122,0 -0.98245,-0.0702 -1.47368,-0.21053 -0.42105,-0.14034 -0.91228,-0.42105 -1.33333,-0.70175 -0.49123,-0.42105 -0.84211,-0.91228 -1.12281,-1.47369 -0.21053,-0.5614 -0.35088,-1.19297 -0.35088,-1.89473 0,-1.26316 0.42105,-2.66667 1.19299,-4.21053 0.77192,-1.47368 1.75438,-2.87719 3.01754,-4.14035 1.82456,-1.89474 3.57895,-3.36842 5.19298,-4.42105 1.61404,-1.05263 2.94738,-1.54386 4.14036,-1.54386 0.49122,0 0.91228,0.14035 1.26315,0.35087 0.49123,0.28071 0.77194,0.84211 0.77194,1.61404 0,0.8421 -0.28071,1.82456 -0.91228,2.94737 -0.63159,1.1228 -1.26317,2.03509 -2.03509,2.80702 z"
       id="path53"
       style="clip-rule:evenodd;fill:#373435;fill-rule:nonzero;image-rendering:optimizeQuality;shape-rendering:geometricPrecision;text-rendering:geometricPrecision" />
  </g>
</svg>
