<?xml version="1.0" encoding="UTF-8" standalone="no"?>
<svg
   xmlns:dc="http://purl.org/dc/elements/1.1/"
   xmlns:cc="http://creativecommons.org/ns#"
   xmlns:rdf="http://www.w3.org/1999/02/22-rdf-syntax-ns#"
   xmlns:svg="http://www.w3.org/2000/svg"
   xmlns="http://www.w3.org/2000/svg"
   version="1.1"
   id="svg4346"
   viewBox="0 0 65.55629 49.999998"
   height="14.111111mm"
   width="18.501442mm">
  <defs
     id="defs4348" />
  <metadata
     id="metadata4351">
    <rdf:RDF>
      <cc:Work
         rdf:about="">
        <dc:format>image/svg+xml</dc:format>
        <dc:type
           rdf:resource="http://purl.org/dc/dcmitype/StillImage" />
        <dc:title></dc:title>
      </cc:Work>
    </rdf:RDF>
  </metadata>
  <g
     transform="translate(-181.04423,-556.62533)"
     id="layer1">
    <path
       id="path4288"
       d="m 223.52774,556.62533 -1.79655,0.34685 c -2.29772,0.44365 -3.95994,1.34233 -5.78337,3.12713 l -1.45408,1.42323 -2.18035,-1.95977 -2.18089,-1.96032 -2.71522,2.43896 c -1.4933,1.34135 -2.97418,2.65299 -3.2909,2.91429 -0.50873,0.41971 -0.79758,0.28408 -2.47592,-1.1591 -2.17199,-1.86766 -3.01738,-2.01165 -5.13762,-0.87566 -1.48853,0.79752 -5.77187,5.09338 -5.71224,5.72876 0.0422,0.44939 3.55095,3.74805 3.98681,3.74805 0.16988,0 0.90148,-0.72553 1.62616,-1.61239 l 1.31792,-1.61236 1.66917,1.56055 1.66916,1.56106 -1.51422,3.4922 c -1.89305,4.36567 -2.70568,5.63675 -4.06567,6.35683 -0.69707,0.36906 -0.93544,0.40599 -0.6777,0.10534 0.76288,-0.88991 0.2747,-2.08602 -1.59031,-3.89805 -2.47451,-2.40415 -3.59322,-2.9344 -5.1062,-2.41909 -2.2666,0.77195 -3.0017,3.3215 -1.60631,5.57105 0.71666,1.15538 3.95315,4.05037 5.23084,4.67883 0.50873,0.25026 1.41224,0.56972 2.00773,0.71026 1.80068,0.42491 3.83436,0.35653 5.91736,-0.19963 2.78809,-0.74442 4.50125,-1.74929 6.47485,-3.79765 1.19442,-1.23972 1.72901,-1.59491 1.7684,-1.17509 0.0468,0.49862 1.38189,1.9371 2.76706,3.16351 0.45624,0.9185 1.30942,1.84243 2.85695,3.29753 2.51266,2.36262 2.57152,2.60167 2.31652,3.4922 -0.42931,1.49934 -0.0838,4.04226 0.79132,5.49109 1.31453,2.17629 6.33537,6.15101 8.31273,6.69046 2.46299,0.67195 5.44513,0.34964 7.56723,-0.81723 4.15542,-2.2358 4.08422,-6.80842 2.31929,-9.9466 -0.77565,-0.56678 -2.52589,-2.25489 -2.37112,-2.35571 0.0789,-0.0514 1.35075,-0.72268 2.8266,-1.49217 4.75729,-2.48033 7.08804,-5.97653 5.74531,-8.61934 -0.29501,-0.58064 -1.54528,-1.93924 -2.77807,-3.0185 -2.12863,-1.86352 -2.33343,-1.96197 -4.06844,-1.96197 -1.39592,0 -2.51025,0.33507 -4.72352,1.41992 l -2.89662,1.41992 -1.62617,-1.46128 -1.62616,-1.46126 c -4.10884,0.0379 -5.0761,0.17962 -7.81425,0.64406 -0.23501,-0.4783 -0.48191,-0.87585 -0.65786,-1.01131 -0.42081,-0.324 -0.14314,-0.66342 1.42599,-1.74308 1.57803,-1.08581 2.32372,-2.00152 3.91844,-4.81392 2.39639,-4.22615 3.02451,-4.89283 5.1222,-5.43101 2.07566,-0.53253 2.05034,-1.12974 -0.13126,-3.09019 l -1.65702,-1.4894 z m -1.30688,0.74553 c 0.95538,0.0215 0.90038,0.0823 -0.55142,0.61373 -2.03523,0.74507 -2.61096,1.38604 -5.04058,5.60581 -1.78551,3.10103 -3.79881,5.23756 -5.47952,5.81589 -0.2441,0.084 -0.0503,0.61548 0.53488,1.47119 1.16678,2.62917 0.99981,3.07593 1.04383,5.37531 1.26021,-0.74001 2.29176,-1.3787 3.42658,-1.6824 l 0.11415,-0.0568 c 0,0 0.015,0.0212 0.0175,0.0243 1.75008,-0.28619 3.06845,-0.56268 4.89722,-0.56025 0.92739,0.003 1.6361,0.098 1.86546,0.30771 0.29467,0.2694 -0.29845,0.37149 -2.05683,0.35512 -4.47722,-0.0421 -5.5394,1.89124 -7.92619,5.36814 -0.39529,1.49688 -0.39473,2.788 0.27572,4.02153 0.50919,1.06919 1.53921,1.47862 2.50568,1.83845 l 1.64105,0.60492 1.13262,-1.56275 c 1.40154,-1.93413 2.25099,-2.87548 4.51838,-5.00803 1.15959,-1.38418 2.63553,-2.13981 3.92837,-3.01687 2.80092,-1.90618 5.36653,-2.85334 7.27661,-2.84371 1.9101,0.01 3.16517,0.9761 3.3455,2.89722 0.3458,3.68387 -4.6443,7.63158 -11.99353,9.48891 l -3.02677,0.76484 -1.01184,2.65568 c -1.29198,3.39064 -1.32628,6.5426 -0.0827,7.57988 1.16532,0.97204 4.01169,1.15583 5.95926,0.38437 1.77481,-0.70303 3.89485,-2.62635 4.51784,-4.09822 0.93514,-2.20938 -0.25028,-4.89866 -2.1583,-4.89555 -2.00705,0.003 -4.07289,2.45119 -4.2548,5.04168 -0.13128,1.86954 -0.85018,1.44203 -1.17785,-0.70032 -0.22922,-1.49878 -0.14015,-1.95381 0.56466,-2.89662 1.74717,-2.33707 4.62364,-2.86743 6.71308,-1.23796 0.96703,0.75413 1.19603,1.173 1.31128,2.40091 0.26931,2.86926 -2.55678,6.28977 -6.01053,7.27497 -2.81545,0.80308 -6.02639,0.0773 -8.25101,-1.86494 -2.45542,-2.14379 -3.12299,-4.50102 -2.193,-7.75027 0.29224,-1.02116 0.52214,-1.95821 0.51062,-2.08218 -0.0116,-0.124 -0.60113,-0.3325 -1.31021,-0.46322 -1.16091,-0.35958 -2.01205,-0.89677 -2.84535,-1.56493 -0.46658,-0.38837 -0.90385,-0.81175 -1.26111,-1.23906 -0.71181,-1.00253 -0.87502,-1.60372 -0.92528,-2.1445 -1.38477,-0.32609 -2.47409,-1.79917 -2.59501,-2.85418 -0.063,-0.67096 0.32477,-2.53553 0.86187,-4.14286 1.20473,-3.60538 1.09877,-4.37448 -0.60272,-4.37448 -0.86266,0 -1.2501,-0.15966 -1.2848,-0.52937 -0.0355,-0.37857 0.46452,-0.58174 1.75629,-0.71297 2.22225,-0.22575 2.81424,-0.78078 4.28843,-4.021 1.86761,-4.10494 6.092,-7.65331 9.03236,-7.58708 z m -12.18706,0.84644 c 0.28747,10e-4 0.16491,0.65659 -0.49354,1.69673 -1.16707,1.84362 -1.50784,2.83864 -2.86576,8.36624 -0.59603,2.42626 -1.37171,5.10179 -1.72374,5.94602 -1.27876,3.06647 -4.08193,5.69392 -7.33508,6.87462 -6.45268,2.34193 -13.0166,-0.84338 -11.0947,-5.38412 0.48462,-1.14499 1.03841,-1.437 2.72296,-1.437 0.88864,0 1.36871,0.22792 1.85884,0.88228 0.60794,0.81161 0.62138,0.95156 0.17425,1.74802 -0.29616,0.52764 -0.96421,0.9569 -1.71106,1.09953 -0.67401,0.12872 -1.35284,0.52209 -1.50815,0.87401 -0.62011,1.40516 3.19417,2.84609 6.0767,2.2956 2.14272,-0.40918 3.76671,-2.50049 6.10319,-7.86114 2.24128,-5.14225 3.42771,-7.39347 4.77205,-9.05442 1.04039,-1.28539 0.71066,-1.14803 -2.23989,0.93412 -2.78022,1.96194 -4.09274,2.35396 -5.02517,1.50155 -0.95314,-0.87139 -0.90625,-2.01601 0.15111,-3.69291 0.51929,-0.82358 0.8495,-1.58333 0.73451,-1.68847 -0.5294,-0.48394 -2.63948,0.98694 -4.74891,3.30967 -1.27223,1.40089 -2.40522,2.41731 -2.51779,2.25917 -0.11259,-0.15816 0.93847,-1.48742 2.33583,-2.95399 2.96585,-3.11265 4.67175,-3.91085 6.26033,-2.93026 0.52446,0.32372 0.97636,0.83081 1.00417,1.1271 0.0616,0.65662 -0.70445,2.57164 -1.36699,3.41775 -0.88544,1.13076 -0.0292,1.07506 1.75132,-0.11358 2.22265,-1.48384 6.75526,-5.2574 7.7525,-6.45445 0.4401,-0.52829 0.76054,-0.76282 0.93302,-0.76207 z m 24.28756,16.37791 c -2.3613,0.0806 -5.56543,3.06209 -9.20828,8.60776 -0.9676,1.47306 -1.75163,2.76252 -1.74195,2.86574 0.01,0.10324 0.75913,0.0503 1.66532,-0.11799 5.99794,-1.93862 7.3062,-3.40998 8.51677,-4.80845 2.69691,-3.14518 3.41346,-5.80044 1.72761,-6.40316 -0.30173,-0.10785 -0.62214,-0.15542 -0.95947,-0.1439 z m -11.10958,3.33059 c 0.23823,-0.008 0.47282,0 0.70196,0.0271 0.24018,0.0277 0.54377,0.0357 0.75049,0.0271 -1.60618,1.37319 -3.17345,2.69873 -4.31931,3.96862 -1.92603,2.14173 -2.97697,4.12728 -3.17401,4.01217 -0.63499,-0.15568 -0.98073,-0.72353 -0.95894,-1.2363 -0.0608,-3.86577 3.47444,-6.6179 6.99981,-6.79853 z m -42.16755,8.64142 2.89665,2.23656 23.33193,0 11.42113,17.82155 27.90658,0 -3.03452,-2.71689 -23.6297,0 -11.16418,-17.32855 -25.59607,0 -2.13182,-0.0127 z m 10.39825,4.28622 0.091,0.13566 3.91293,3.95979 13.83417,0 -2.73894,-4.08828 -13.87827,0 -1.22085,-0.007 z m 40.55296,1.51145 c 0.10209,-0.004 0.0133,0.20966 -0.193,0.69646 -0.20362,0.48049 -0.70673,1.39013 -1.11828,2.02097 -0.71486,1.09567 -1.38613,1.48808 -1.44641,0.84589 -0.0523,-0.55692 1.33489,-2.62177 2.13843,-3.18339 0.34534,-0.24133 0.53984,-0.37665 0.61926,-0.37993 z m -7.56777,3.37142 c 0.16999,0.0268 0.49289,0.24763 0.95893,0.65732 0.62714,0.55122 1.06992,1.13694 0.98375,1.30134 -0.0862,0.16441 -0.64281,0.29888 -1.23629,0.29888 -0.94683,0 -1.06207,-0.0974 -0.94076,-0.79405 0.0761,-0.43674 0.11932,-1.02243 0.096,-1.30138 -0.0104,-0.12436 0.0364,-0.1782 0.1384,-0.16211 z m -27.41581,0.79682 4.04141,4.08938 11.88929,0 -2.73894,-4.08938 -13.19176,0 z"
       style="fill:#ed1c24;fill-opacity:1" />
  </g>
</svg>
