<?xml version="1.0" encoding="UTF-8" standalone="no"?>
<svg
   xmlns:dc="http://purl.org/dc/elements/1.1/"
   xmlns:cc="http://creativecommons.org/ns#"
   xmlns:rdf="http://www.w3.org/1999/02/22-rdf-syntax-ns#"
   xmlns:svg="http://www.w3.org/2000/svg"
   xmlns="http://www.w3.org/2000/svg"
   version="1.1"
   id="svg2"
   viewBox="0 0 1092.0299 133.02376"
   height="37.542259mm"
   width="308.1951mm">
  <defs
     id="defs4" />
  <metadata
     id="metadata7">
    <rdf:RDF>
      <cc:Work
         rdf:about="">
        <dc:format>image/svg+xml</dc:format>
        <dc:type
           rdf:resource="http://purl.org/dc/dcmitype/StillImage" />
        <dc:title></dc:title>
      </cc:Work>
    </rdf:RDF>
  </metadata>
  <g
     transform="translate(1109.9999,-363.14792)"
     id="layer1">
    <path
       id="path4147"
       d="m -171.40532,487.39792 c 3.68715,-13.86897 15.38837,-56.90116 25.01644,-92 l 8.8466,-32.25 5.88777,0 c 5.12589,0 5.82488,0.22645 5.40175,1.75 -8.20103,29.52922 -28.72539,104.80374 -30.87876,113.25 -4.95497,19.43516 -4.09294,18 -10.81182,18 l -5.78823,0 2.32625,-8.75 z m 87.75232,6.76473 c -8.8073,-2.30879 -14.2388,-5.01875 -19.3942,-9.67632 -4.0698,-3.67687 -5.0422,-5.11813 -9.4732,-14.04199 -2.3898,-4.81306 -5.3813,-16.8001 -4.4046,-17.64928 0.2338,-0.2032 3.6875,-0.66008 7.675,-1.01528 6.1261,-0.5457 7.25,-0.40833 7.25,0.88614 0,2.95902 3.9491,12.72645 6.4949,16.06427 1.4151,1.85522 4.6951,4.59907 7.289,6.09742 2.5938,1.49836 4.9411,3.01818 5.2161,3.37739 1.4757,1.92751 9.4922,3.40144 18.5,3.40144 9.8146,0 16.003,-1.2803 19.3788,-4.0092 0.8917,-0.72082 3.1477,-2.56068 5.0135,-4.08858 6.0197,-4.92962 8.6598,-14.12254 6.0441,-21.04564 C -36.77,445.29999 -43.9827,440.912 -60,436.6841 c -5.775,-1.52436 -13.875,-3.68179 -18,-4.79428 -24.1321,-6.50834 -34.9756,-18.10678 -33.7698,-36.12094 1.3735,-20.51924 17.6382,-32.64661 43.7299,-32.60618 21.2584,0.0329 35.6256,7.24116 42.4973,21.32156 2.6748,5.48064 4.8557,14.73856 3.7212,15.79661 -0.3732,0.34812 -3.8956,0.87308 -7.8276,1.16658 l -7.1489,0.53363 -0.6582,-4.38914 c -1.0317,-6.87973 -6.0085,-13.37125 -12.9732,-16.92153 -5.5926,-2.85089 -6.5862,-3.02175 -17.5,-3.00953 -10.4038,0.0117 -12.1432,0.28004 -17.2478,2.66131 -7.7046,3.59415 -11.3229,8.94759 -11.3229,16.7527 0,11.255 4.8359,14.42229 33.1035,21.6812 28.3241,7.2734 38.6644,13.53032 43.4844,26.31232 3.1808,8.43519 2.3911,20.37112 -1.9046,28.78622 -1.7426,3.41369 -4.5059,7.73005 -6.1406,9.5919 -3.6818,4.1933 -12.8046,9.14384 -20.5843,11.1702 -8.3275,2.16906 -25.9757,1.94082 -35.1114,-0.45408 z M -291,493.84367 c 0,-0.98337 11.2533,-31.73797 28.15369,-76.94238 l 19.34631,-51.74664 9.09205,-0.003 9.09205,-0.003 6.61546,16.75 c 3.6385,9.2125 12.06702,30.475 18.73006,47.25 11.14045,28.04753 24.97038,63.86193 24.97038,64.66413 0,0.18477 -3.99026,0.33594 -8.86725,0.33594 l -8.86725,0 -3.02202,-8.25 c -1.66211,-4.5375 -4.94036,-13.5375 -7.28499,-20 l -4.26296,-11.75 -26.72623,0 -26.72623,0 -3.60344,10.43154 c -1.98189,5.73735 -4.9827,14.73735 -6.66848,20 l -3.06505,9.56846 -8.45305,0 c -4.64918,0 -8.45305,-0.13691 -8.45305,-0.30425 z m 78,-53.85057 c 0,-0.63515 -2.77289,-8.62265 -6.16197,-17.75 -3.38909,-9.12735 -8.30011,-22.89518 -10.9134,-30.59518 -2.61328,-7.7 -4.9907,-13.325 -5.28315,-12.5 -0.29244,0.825 -1.53295,5.325 -2.75668,10 -1.22372,4.675 -5.74842,18.15041 -10.05488,29.94535 -4.30645,11.79494 -7.82992,21.58244 -7.82992,21.75 0,0.16756 9.675,0.30465 21.5,0.30465 15.58826,0 21.5,-0.31754 21.5,-1.15482 z m -183.01269,49.40938 -12.51269,-0.31077 -2.98731,-4.66297 c -1.64302,-2.56464 -3.21231,-5.18634 -3.48731,-5.82601 -0.275,-0.63967 -8.6,-13.4625 -18.5,-28.49518 l -18,-27.33216 -0.26385,32.18627 -0.26386,32.18626 -5.23614,-0.004 c -2.87988,-0.002 -10.97365,-0.29667 -17.98615,-0.65432 l -12.75,-0.65032 0,-60.34568 0,-60.34568 17.87873,0 17.87874,0 23.62126,35.64381 23.62127,35.64381 0,-35.64381 0,-35.64381 18,0 18,0 0,62.5 0,62.5 -7.25,-0.21733 c -3.9875,-0.11953 -12.88071,-0.35718 -19.76269,-0.52811 z M -544.5,484.14792 l -11,-0.5 -0.20325,-49 c -0.19253,-46.41451 -0.11338,-48.87054 1.5,-46.54645 0.93679,1.34945 9.69075,13.78918 19.45325,27.64386 l 17.75,25.19032 0,22.18149 0,22.18149 -8.25,-0.32536 c -4.5375,-0.17894 -13.2,-0.55035 -19.25,-0.82535 z m -47.55223,-1.34335 c -0.41876,-0.37927 -6.94236,-0.62665 -59.94777,-2.27333 -11.275,-0.35027 -21.85,-0.74073 -23.5,-0.86768 -1.65,-0.12696 -6.4875,-0.29491 -10.75,-0.37324 l -7.75,-0.1424 0,-57.04974 0,-57.04973 42.75,0.32933 c 49.67308,0.38267 48.87867,0.2506 58.3241,9.69604 6.51258,6.51257 8.9259,12.34562 8.9259,21.5741 0,11.8291 -5.37689,21.01731 -15.14888,25.8869 -4.05003,2.01821 -4.74076,2.68451 -3.24763,3.13272 6.45893,1.93884 15.15004,7.35643 18.1228,11.29682 7.58009,10.04738 8.30502,24.66553 1.86899,37.68795 -2.03749,4.12259 -4.31815,7.49561 -5.06812,7.49561 -0.74997,0 -1.98639,0.23899 -2.74761,0.5311 -0.76121,0.2921 -1.58551,0.3486 -1.83178,0.12555 z m -32.58355,-18.03547 c 7.05542,-2.94794 10.20953,-10.75541 6.98891,-17.29986 -3.18801,-6.47818 -6.29866,-7.52238 -22.88461,-7.68205 l -14.46753,-0.13927 -4.9e-4,13.25 -5e-4,13.25 13.53212,0 c 9.23775,0 14.57935,-0.43756 16.8321,-1.37882 z m -3.00442,-50.99815 c 6.25378,-2.613 8.4653,-11.61283 4.35557,-17.72515 -3.04653,-4.53104 -6.93114,-5.63776 -20.46537,-5.83056 l -11.25,-0.16025 0,12.54646 0,12.54647 12.03212,0 c 7.9552,0 13.14877,-0.46657 15.32768,-1.37697 z M -769,475.59768 c -36.25514,-1.33043 -61.32946,-2.30296 -61.75,-2.39503 -0.1375,-0.0301 -0.25,-24.37711 -0.25,-54.10447 l 0,-54.04973 42.75,0.30167 c 41.76299,0.29469 42.87955,0.35402 48.36117,2.56964 7.02652,2.84004 13.47005,9.07174 16.71979,16.17011 6.50807,14.21548 0.34523,32.61642 -12.9286,38.60208 -4.00142,1.80439 -5.11941,3.45597 -2.33941,3.45597 3.33982,0 12.82523,5.63409 16.48474,9.79152 5.48461,6.23084 7.29209,12.42597 6.73056,23.06889 -0.33761,6.39876 -1.06807,9.87159 -2.81631,13.38959 l -2.36047,4.75 -7.05074,-0.14211 c -3.8779,-0.0782 -22.57573,-0.71182 -41.55073,-1.40813 z m 8.57586,-11.34487 c 11.05983,-5.02317 9.01546,-21.45033 -2.96348,-23.81259 -2.26181,-0.44603 -9.62488,-0.65658 -16.36238,-0.46789 l -12.25,0.34309 0,12.91625 0,12.91625 13.75,-0.022 c 11.21409,-0.0179 14.50171,-0.36338 17.82586,-1.87315 z m -4.11016,-50.52611 c 9.48639,-3.96367 8.14594,-19.71708 -1.9106,-22.45409 -1.6803,-0.45731 -8.1176,-0.91836 -14.3051,-1.02455 l -11.25,-0.19307 0,12.54646 0,12.54647 12.03212,0 c 8.13658,0 13.13338,-0.46014 15.43358,-1.42122 z m -121.79068,57.79815 c -0.2017,-0.14182 -26.71178,-1.06232 -57.17502,-1.98525 -11.55,-0.34993 -22.78405,-0.69371 -24.96455,-0.76395 -3.75795,-0.12107 -4.10555,-0.40994 -6.66991,-5.54287 -4.08997,-8.18664 -6.05443,-17.31163 -6.58443,-30.58486 -0.86199,-21.58769 4.39888,-38.6279 15.70213,-50.85992 6.87876,-7.44398 13.62103,-11.8142 23.68893,-15.35476 7.39521,-2.60066 8.795,-2.7528 25.32783,-2.7528 16.54051,0 17.93862,0.15215 25.5,2.77499 19.5031,6.7651 32.14074,20.88333 37.2113,41.57086 2.1783,8.88729 2.17644,31.9885 -0.003,41.64583 -1.79069,7.93352 -4.72459,15.28606 -7.85241,19.67868 l -2.11706,2.97313 -10.94421,-0.33801 c -6.01932,-0.1859 -11.02298,-0.39338 -11.11925,-0.46107 z m -19.05799,-7.77909 c 10.23717,-4.76669 14.46676,-14.67101 14.56129,-34.09784 0.0958,-19.69005 -3.83728,-29.02132 -14.67832,-34.82427 -5.2256,-2.79715 -18.34357,-3.04708 -23.14388,-0.44096 -11.11772,6.0359 -15.58718,17.37006 -14.89214,37.76523 0.40651,11.92867 2.21709,18.87919 6.43458,24.70127 6.44986,8.90377 20.7364,12.0101 31.71847,6.89657 z m -131.31883,2.65895 -8.2019,-0.33612 -4.1947,-7.71033 c -7.6222,-14.01039 -11.2236,-17.21034 -19.3695,-17.21034 l -3.5321,0 0,12.15279 0,12.15279 -11.25,-0.64824 c -6.1875,-0.35654 -14.7375,-0.65029 -19,-0.65279 l -7.75,-0.005 0,-49.5 0,-49.5 38.25,0.008 c 21.0433,0.004 41.174,0.46641 44.75,1.02759 18.9791,2.97835 29.21851,14.85683 29.27827,33.96486 0.0534,17.0845 -8.04597,28.90886 -23.67947,34.5696 l -6.0709,2.19822 4.747,2.23138 c 7.4058,3.48113 15.2323,13.37798 21.5502,27.2508 0.3264,0.71673 -18.1172,0.72026 -35.5269,0.007 z m -6.2543,-51.57689 c 8.9662,-4.3319 9.3779,-17.70811 0.6892,-22.38709 -2.477,-1.33387 -6.3318,-1.8285 -16.4831,-2.11504 l -13.25,-0.374 0,13.71636 0,13.71636 12.75,-0.42219 c 9.2968,-0.30784 13.7098,-0.88591 16.2939,-2.1344 z m 508.22796,-24.56888 -17.22814,-24.61102 17.12058,-0.27423 c 9.41632,-0.15082 17.28949,-0.10531 17.49594,0.10113 0.20644,0.20645 0.25484,11.40481 0.10755,24.88525 l -0.26779,24.50989 -17.22814,-24.61102 z"
       style="fill:#0069b2;fill-opacity:1" />
  </g>
</svg>
